<mxfile host="app.diagrams.net" modified="2022-10-20T13:42:46.427Z" agent="5.0 (Windows NT 10.0; Win64; x64) AppleWebKit/537.36 (KHTML, like Gecko) Chrome/106.0.0.0 Safari/537.36" etag="BhiLTO2KxtYoErSA7np2" version="20.4.2" type="github">
  <diagram name="Page-1" id="9f46799a-70d6-7492-0946-bef42562c5a5">
    <mxGraphModel dx="3172" dy="1726" grid="1" gridSize="10" guides="1" tooltips="1" connect="1" arrows="1" fold="1" page="1" pageScale="1" pageWidth="1100" pageHeight="850" background="none" math="0" shadow="0">
      <root>
        <mxCell id="0" />
        <mxCell id="1" parent="0" />
        <mxCell id="78961159f06e98e8-17" value="&lt;i&gt;GeometricObject&lt;/i&gt;" style="swimlane;html=1;fontStyle=1;align=center;verticalAlign=top;childLayout=stackLayout;horizontal=1;startSize=26;horizontalStack=0;resizeParent=1;resizeLast=0;collapsible=1;marginBottom=0;swimlaneFillColor=#ffffff;rounded=0;shadow=0;comic=0;labelBackgroundColor=none;strokeWidth=1;fillColor=none;fontFamily=Verdana;fontSize=12" parent="1" vertex="1">
          <mxGeometry x="970" y="120" width="250" height="387" as="geometry" />
        </mxCell>
        <mxCell id="78961159f06e98e8-21" value="- color: Sting" style="text;html=1;strokeColor=none;fillColor=none;align=left;verticalAlign=top;spacingLeft=4;spacingRight=4;whiteSpace=wrap;overflow=hidden;rotatable=0;points=[[0,0.5],[1,0.5]];portConstraint=eastwest;" parent="78961159f06e98e8-17" vertex="1">
          <mxGeometry y="26" width="250" height="26" as="geometry" />
        </mxCell>
        <mxCell id="78961159f06e98e8-23" value="- filled: boolean" style="text;html=1;strokeColor=none;fillColor=none;align=left;verticalAlign=top;spacingLeft=4;spacingRight=4;whiteSpace=wrap;overflow=hidden;rotatable=0;points=[[0,0.5],[1,0.5]];portConstraint=eastwest;" parent="78961159f06e98e8-17" vertex="1">
          <mxGeometry y="52" width="250" height="26" as="geometry" />
        </mxCell>
        <mxCell id="78961159f06e98e8-25" value="- dateCreated: Date" style="text;html=1;strokeColor=none;fillColor=none;align=left;verticalAlign=top;spacingLeft=4;spacingRight=4;whiteSpace=wrap;overflow=hidden;rotatable=0;points=[[0,0.5],[1,0.5]];portConstraint=eastwest;" parent="78961159f06e98e8-17" vertex="1">
          <mxGeometry y="78" width="250" height="26" as="geometry" />
        </mxCell>
        <mxCell id="78961159f06e98e8-19" value="" style="line;html=1;strokeWidth=1;fillColor=none;align=left;verticalAlign=middle;spacingTop=-1;spacingLeft=3;spacingRight=3;rotatable=0;labelPosition=right;points=[];portConstraint=eastwest;" parent="78961159f06e98e8-17" vertex="1">
          <mxGeometry y="104" width="250" height="8" as="geometry" />
        </mxCell>
        <mxCell id="78961159f06e98e8-20" value="+ GeometricObject()" style="text;html=1;strokeColor=none;fillColor=none;align=left;verticalAlign=top;spacingLeft=4;spacingRight=4;whiteSpace=wrap;overflow=hidden;rotatable=0;points=[[0,0.5],[1,0.5]];portConstraint=eastwest;" parent="78961159f06e98e8-17" vertex="1">
          <mxGeometry y="112" width="250" height="26" as="geometry" />
        </mxCell>
        <mxCell id="HQzzS1IwcTX02C_Df-WI-1" value="+ Geometric(color:String, filled:boolean)" style="text;html=1;strokeColor=none;fillColor=none;align=left;verticalAlign=top;spacingLeft=4;spacingRight=4;whiteSpace=wrap;overflow=hidden;rotatable=0;points=[[0,0.5],[1,0.5]];portConstraint=eastwest;" vertex="1" parent="78961159f06e98e8-17">
          <mxGeometry y="138" width="250" height="26" as="geometry" />
        </mxCell>
        <mxCell id="78961159f06e98e8-27" value="+ getColor(): String" style="text;html=1;strokeColor=none;fillColor=none;align=left;verticalAlign=top;spacingLeft=4;spacingRight=4;whiteSpace=wrap;overflow=hidden;rotatable=0;points=[[0,0.5],[1,0.5]];portConstraint=eastwest;" parent="78961159f06e98e8-17" vertex="1">
          <mxGeometry y="164" width="250" height="26" as="geometry" />
        </mxCell>
        <mxCell id="HQzzS1IwcTX02C_Df-WI-3" value="+ setColor(color:String): void" style="text;html=1;strokeColor=none;fillColor=none;align=left;verticalAlign=top;spacingLeft=4;spacingRight=4;whiteSpace=wrap;overflow=hidden;rotatable=0;points=[[0,0.5],[1,0.5]];portConstraint=eastwest;" vertex="1" parent="78961159f06e98e8-17">
          <mxGeometry y="190" width="250" height="26" as="geometry" />
        </mxCell>
        <mxCell id="HQzzS1IwcTX02C_Df-WI-4" value="+ isFilled(): boolean" style="text;html=1;strokeColor=none;fillColor=none;align=left;verticalAlign=top;spacingLeft=4;spacingRight=4;whiteSpace=wrap;overflow=hidden;rotatable=0;points=[[0,0.5],[1,0.5]];portConstraint=eastwest;" vertex="1" parent="78961159f06e98e8-17">
          <mxGeometry y="216" width="250" height="26" as="geometry" />
        </mxCell>
        <mxCell id="HQzzS1IwcTX02C_Df-WI-5" value="+ setFilled(filled: boolean): void" style="text;html=1;strokeColor=none;fillColor=none;align=left;verticalAlign=top;spacingLeft=4;spacingRight=4;whiteSpace=wrap;overflow=hidden;rotatable=0;points=[[0,0.5],[1,0.5]];portConstraint=eastwest;" vertex="1" parent="78961159f06e98e8-17">
          <mxGeometry y="242" width="250" height="26" as="geometry" />
        </mxCell>
        <mxCell id="HQzzS1IwcTX02C_Df-WI-6" value="+ getDateCreated(): Date" style="text;html=1;strokeColor=none;fillColor=none;align=left;verticalAlign=top;spacingLeft=4;spacingRight=4;whiteSpace=wrap;overflow=hidden;rotatable=0;points=[[0,0.5],[1,0.5]];portConstraint=eastwest;" vertex="1" parent="78961159f06e98e8-17">
          <mxGeometry y="268" width="250" height="26" as="geometry" />
        </mxCell>
        <mxCell id="HQzzS1IwcTX02C_Df-WI-7" value="+ toString(): String" style="text;html=1;strokeColor=none;fillColor=none;align=left;verticalAlign=top;spacingLeft=4;spacingRight=4;whiteSpace=wrap;overflow=hidden;rotatable=0;points=[[0,0.5],[1,0.5]];portConstraint=eastwest;" vertex="1" parent="78961159f06e98e8-17">
          <mxGeometry y="294" width="250" height="26" as="geometry" />
        </mxCell>
        <mxCell id="HQzzS1IwcTX02C_Df-WI-8" value="&lt;i&gt;+ getArea(): double&lt;/i&gt;" style="text;html=1;strokeColor=none;fillColor=none;align=left;verticalAlign=top;spacingLeft=4;spacingRight=4;whiteSpace=wrap;overflow=hidden;rotatable=0;points=[[0,0.5],[1,0.5]];portConstraint=eastwest;" vertex="1" parent="78961159f06e98e8-17">
          <mxGeometry y="320" width="250" height="26" as="geometry" />
        </mxCell>
        <mxCell id="HQzzS1IwcTX02C_Df-WI-9" value="&lt;i&gt;+ getPerimeter: doble&lt;/i&gt;" style="text;html=1;strokeColor=none;fillColor=none;align=left;verticalAlign=top;spacingLeft=4;spacingRight=4;whiteSpace=wrap;overflow=hidden;rotatable=0;points=[[0,0.5],[1,0.5]];portConstraint=eastwest;" vertex="1" parent="78961159f06e98e8-17">
          <mxGeometry y="346" width="250" height="26" as="geometry" />
        </mxCell>
        <mxCell id="HQzzS1IwcTX02C_Df-WI-78" style="edgeStyle=orthogonalEdgeStyle;rounded=0;orthogonalLoop=1;jettySize=auto;html=1;entryX=0;entryY=0.5;entryDx=0;entryDy=0;" edge="1" parent="1" source="HQzzS1IwcTX02C_Df-WI-10" target="78961159f06e98e8-23">
          <mxGeometry relative="1" as="geometry" />
        </mxCell>
        <mxCell id="HQzzS1IwcTX02C_Df-WI-10" value="Circle" style="swimlane;html=1;fontStyle=1;align=center;verticalAlign=top;childLayout=stackLayout;horizontal=1;startSize=26;horizontalStack=0;resizeParent=1;resizeLast=0;collapsible=1;marginBottom=0;swimlaneFillColor=#ffffff;rounded=0;shadow=0;comic=0;labelBackgroundColor=none;strokeWidth=1;fillColor=none;fontFamily=Verdana;fontSize=12" vertex="1" parent="1">
          <mxGeometry x="770" y="680" width="330" height="360" as="geometry" />
        </mxCell>
        <mxCell id="HQzzS1IwcTX02C_Df-WI-11" value="- radius: double" style="text;html=1;strokeColor=none;fillColor=none;align=left;verticalAlign=top;spacingLeft=4;spacingRight=4;whiteSpace=wrap;overflow=hidden;rotatable=0;points=[[0,0.5],[1,0.5]];portConstraint=eastwest;" vertex="1" parent="HQzzS1IwcTX02C_Df-WI-10">
          <mxGeometry y="26" width="330" height="26" as="geometry" />
        </mxCell>
        <mxCell id="HQzzS1IwcTX02C_Df-WI-18" value="" style="line;html=1;strokeWidth=1;fillColor=none;align=left;verticalAlign=middle;spacingTop=-1;spacingLeft=3;spacingRight=3;rotatable=0;labelPosition=right;points=[];portConstraint=eastwest;" vertex="1" parent="HQzzS1IwcTX02C_Df-WI-10">
          <mxGeometry y="52" width="330" height="8" as="geometry" />
        </mxCell>
        <mxCell id="HQzzS1IwcTX02C_Df-WI-19" value="+ Circle()" style="text;html=1;strokeColor=none;fillColor=none;align=left;verticalAlign=top;spacingLeft=4;spacingRight=4;whiteSpace=wrap;overflow=hidden;rotatable=0;points=[[0,0.5],[1,0.5]];portConstraint=eastwest;" vertex="1" parent="HQzzS1IwcTX02C_Df-WI-10">
          <mxGeometry y="60" width="330" height="26" as="geometry" />
        </mxCell>
        <mxCell id="HQzzS1IwcTX02C_Df-WI-20" value="+ Circle(radius: double)" style="text;html=1;strokeColor=none;fillColor=none;align=left;verticalAlign=top;spacingLeft=4;spacingRight=4;whiteSpace=wrap;overflow=hidden;rotatable=0;points=[[0,0.5],[1,0.5]];portConstraint=eastwest;" vertex="1" parent="HQzzS1IwcTX02C_Df-WI-10">
          <mxGeometry y="86" width="330" height="26" as="geometry" />
        </mxCell>
        <mxCell id="HQzzS1IwcTX02C_Df-WI-22" value="+ Circle(radius: double, color: String, filled:boolean)" style="text;html=1;strokeColor=none;fillColor=none;align=left;verticalAlign=top;spacingLeft=4;spacingRight=4;whiteSpace=wrap;overflow=hidden;rotatable=0;points=[[0,0.5],[1,0.5]];portConstraint=eastwest;" vertex="1" parent="HQzzS1IwcTX02C_Df-WI-10">
          <mxGeometry y="112" width="330" height="26" as="geometry" />
        </mxCell>
        <mxCell id="HQzzS1IwcTX02C_Df-WI-23" value="+ getRadius(): double" style="text;html=1;strokeColor=none;fillColor=none;align=left;verticalAlign=top;spacingLeft=4;spacingRight=4;whiteSpace=wrap;overflow=hidden;rotatable=0;points=[[0,0.5],[1,0.5]];portConstraint=eastwest;" vertex="1" parent="HQzzS1IwcTX02C_Df-WI-10">
          <mxGeometry y="138" width="330" height="26" as="geometry" />
        </mxCell>
        <mxCell id="HQzzS1IwcTX02C_Df-WI-24" value="+ setRadius(radius: double): void" style="text;html=1;strokeColor=none;fillColor=none;align=left;verticalAlign=top;spacingLeft=4;spacingRight=4;whiteSpace=wrap;overflow=hidden;rotatable=0;points=[[0,0.5],[1,0.5]];portConstraint=eastwest;" vertex="1" parent="HQzzS1IwcTX02C_Df-WI-10">
          <mxGeometry y="164" width="330" height="26" as="geometry" />
        </mxCell>
        <mxCell id="HQzzS1IwcTX02C_Df-WI-25" value="+ getArea(): double" style="text;html=1;strokeColor=none;fillColor=none;align=left;verticalAlign=top;spacingLeft=4;spacingRight=4;whiteSpace=wrap;overflow=hidden;rotatable=0;points=[[0,0.5],[1,0.5]];portConstraint=eastwest;" vertex="1" parent="HQzzS1IwcTX02C_Df-WI-10">
          <mxGeometry y="190" width="330" height="26" as="geometry" />
        </mxCell>
        <mxCell id="HQzzS1IwcTX02C_Df-WI-26" value="+ getPerimeter(): double" style="text;html=1;strokeColor=none;fillColor=none;align=left;verticalAlign=top;spacingLeft=4;spacingRight=4;whiteSpace=wrap;overflow=hidden;rotatable=0;points=[[0,0.5],[1,0.5]];portConstraint=eastwest;" vertex="1" parent="HQzzS1IwcTX02C_Df-WI-10">
          <mxGeometry y="216" width="330" height="26" as="geometry" />
        </mxCell>
        <mxCell id="HQzzS1IwcTX02C_Df-WI-27" value="+ getDiameter(): double" style="text;html=1;strokeColor=none;fillColor=none;align=left;verticalAlign=top;spacingLeft=4;spacingRight=4;whiteSpace=wrap;overflow=hidden;rotatable=0;points=[[0,0.5],[1,0.5]];portConstraint=eastwest;" vertex="1" parent="HQzzS1IwcTX02C_Df-WI-10">
          <mxGeometry y="242" width="330" height="26" as="geometry" />
        </mxCell>
        <mxCell id="HQzzS1IwcTX02C_Df-WI-28" value="+ printCircle(): void" style="text;html=1;strokeColor=none;fillColor=none;align=left;verticalAlign=top;spacingLeft=4;spacingRight=4;whiteSpace=wrap;overflow=hidden;rotatable=0;points=[[0,0.5],[1,0.5]];portConstraint=eastwest;" vertex="1" parent="HQzzS1IwcTX02C_Df-WI-10">
          <mxGeometry y="268" width="330" height="26" as="geometry" />
        </mxCell>
        <mxCell id="HQzzS1IwcTX02C_Df-WI-29" value="+ toString(): String" style="text;html=1;strokeColor=none;fillColor=none;align=left;verticalAlign=top;spacingLeft=4;spacingRight=4;whiteSpace=wrap;overflow=hidden;rotatable=0;points=[[0,0.5],[1,0.5]];portConstraint=eastwest;" vertex="1" parent="HQzzS1IwcTX02C_Df-WI-10">
          <mxGeometry y="294" width="330" height="26" as="geometry" />
        </mxCell>
        <mxCell id="HQzzS1IwcTX02C_Df-WI-30" value="+ equals(circle: Circle): boolean" style="text;html=1;strokeColor=none;fillColor=none;align=left;verticalAlign=top;spacingLeft=4;spacingRight=4;whiteSpace=wrap;overflow=hidden;rotatable=0;points=[[0,0.5],[1,0.5]];portConstraint=eastwest;" vertex="1" parent="HQzzS1IwcTX02C_Df-WI-10">
          <mxGeometry y="320" width="330" height="26" as="geometry" />
        </mxCell>
        <mxCell id="HQzzS1IwcTX02C_Df-WI-79" style="edgeStyle=orthogonalEdgeStyle;rounded=0;orthogonalLoop=1;jettySize=auto;html=1;entryX=0;entryY=0.5;entryDx=0;entryDy=0;" edge="1" parent="1" source="HQzzS1IwcTX02C_Df-WI-31" target="78961159f06e98e8-21">
          <mxGeometry relative="1" as="geometry" />
        </mxCell>
        <mxCell id="HQzzS1IwcTX02C_Df-WI-31" value="Rectangle" style="swimlane;html=1;fontStyle=1;align=center;verticalAlign=top;childLayout=stackLayout;horizontal=1;startSize=26;horizontalStack=0;resizeParent=1;resizeLast=0;collapsible=1;marginBottom=0;swimlaneFillColor=#ffffff;rounded=0;shadow=0;comic=0;labelBackgroundColor=none;strokeWidth=1;fillColor=none;fontFamily=Verdana;fontSize=12" vertex="1" parent="1">
          <mxGeometry x="230" y="680" width="420" height="400" as="geometry" />
        </mxCell>
        <mxCell id="HQzzS1IwcTX02C_Df-WI-32" value="- width: double" style="text;html=1;strokeColor=none;fillColor=none;align=left;verticalAlign=top;spacingLeft=4;spacingRight=4;whiteSpace=wrap;overflow=hidden;rotatable=0;points=[[0,0.5],[1,0.5]];portConstraint=eastwest;" vertex="1" parent="HQzzS1IwcTX02C_Df-WI-31">
          <mxGeometry y="26" width="420" height="26" as="geometry" />
        </mxCell>
        <mxCell id="HQzzS1IwcTX02C_Df-WI-49" value="- height: double" style="text;html=1;strokeColor=none;fillColor=none;align=left;verticalAlign=top;spacingLeft=4;spacingRight=4;whiteSpace=wrap;overflow=hidden;rotatable=0;points=[[0,0.5],[1,0.5]];portConstraint=eastwest;" vertex="1" parent="HQzzS1IwcTX02C_Df-WI-31">
          <mxGeometry y="52" width="420" height="26" as="geometry" />
        </mxCell>
        <mxCell id="HQzzS1IwcTX02C_Df-WI-33" value="" style="line;html=1;strokeWidth=1;fillColor=none;align=left;verticalAlign=middle;spacingTop=-1;spacingLeft=3;spacingRight=3;rotatable=0;labelPosition=right;points=[];portConstraint=eastwest;" vertex="1" parent="HQzzS1IwcTX02C_Df-WI-31">
          <mxGeometry y="78" width="420" height="22" as="geometry" />
        </mxCell>
        <mxCell id="HQzzS1IwcTX02C_Df-WI-34" value="+ Rectangle()" style="text;html=1;strokeColor=none;fillColor=none;align=left;verticalAlign=top;spacingLeft=4;spacingRight=4;whiteSpace=wrap;overflow=hidden;rotatable=0;points=[[0,0.5],[1,0.5]];portConstraint=eastwest;" vertex="1" parent="HQzzS1IwcTX02C_Df-WI-31">
          <mxGeometry y="100" width="420" height="26" as="geometry" />
        </mxCell>
        <mxCell id="HQzzS1IwcTX02C_Df-WI-35" value="+ Rectangle(width: double, height: double)" style="text;html=1;strokeColor=none;fillColor=none;align=left;verticalAlign=top;spacingLeft=4;spacingRight=4;whiteSpace=wrap;overflow=hidden;rotatable=0;points=[[0,0.5],[1,0.5]];portConstraint=eastwest;" vertex="1" parent="HQzzS1IwcTX02C_Df-WI-31">
          <mxGeometry y="126" width="420" height="26" as="geometry" />
        </mxCell>
        <mxCell id="HQzzS1IwcTX02C_Df-WI-36" value="+ Rectangle(width: double, height: double, color: String, filled: boolean )" style="text;html=1;strokeColor=none;fillColor=none;align=left;verticalAlign=top;spacingLeft=4;spacingRight=4;whiteSpace=wrap;overflow=hidden;rotatable=0;points=[[0,0.5],[1,0.5]];portConstraint=eastwest;" vertex="1" parent="HQzzS1IwcTX02C_Df-WI-31">
          <mxGeometry y="152" width="420" height="26" as="geometry" />
        </mxCell>
        <mxCell id="HQzzS1IwcTX02C_Df-WI-37" value="+ getWidth(): double" style="text;html=1;strokeColor=none;fillColor=none;align=left;verticalAlign=top;spacingLeft=4;spacingRight=4;whiteSpace=wrap;overflow=hidden;rotatable=0;points=[[0,0.5],[1,0.5]];portConstraint=eastwest;" vertex="1" parent="HQzzS1IwcTX02C_Df-WI-31">
          <mxGeometry y="178" width="420" height="26" as="geometry" />
        </mxCell>
        <mxCell id="HQzzS1IwcTX02C_Df-WI-38" value="+ setWidth(width: double): void" style="text;html=1;strokeColor=none;fillColor=none;align=left;verticalAlign=top;spacingLeft=4;spacingRight=4;whiteSpace=wrap;overflow=hidden;rotatable=0;points=[[0,0.5],[1,0.5]];portConstraint=eastwest;" vertex="1" parent="HQzzS1IwcTX02C_Df-WI-31">
          <mxGeometry y="204" width="420" height="26" as="geometry" />
        </mxCell>
        <mxCell id="HQzzS1IwcTX02C_Df-WI-39" value="+ getHeight(): double" style="text;html=1;strokeColor=none;fillColor=none;align=left;verticalAlign=top;spacingLeft=4;spacingRight=4;whiteSpace=wrap;overflow=hidden;rotatable=0;points=[[0,0.5],[1,0.5]];portConstraint=eastwest;" vertex="1" parent="HQzzS1IwcTX02C_Df-WI-31">
          <mxGeometry y="230" width="420" height="26" as="geometry" />
        </mxCell>
        <mxCell id="HQzzS1IwcTX02C_Df-WI-40" value="+ setHeight(height: double): void" style="text;html=1;strokeColor=none;fillColor=none;align=left;verticalAlign=top;spacingLeft=4;spacingRight=4;whiteSpace=wrap;overflow=hidden;rotatable=0;points=[[0,0.5],[1,0.5]];portConstraint=eastwest;" vertex="1" parent="HQzzS1IwcTX02C_Df-WI-31">
          <mxGeometry y="256" width="420" height="26" as="geometry" />
        </mxCell>
        <mxCell id="HQzzS1IwcTX02C_Df-WI-41" value="+ getArea(): double" style="text;html=1;strokeColor=none;fillColor=none;align=left;verticalAlign=top;spacingLeft=4;spacingRight=4;whiteSpace=wrap;overflow=hidden;rotatable=0;points=[[0,0.5],[1,0.5]];portConstraint=eastwest;" vertex="1" parent="HQzzS1IwcTX02C_Df-WI-31">
          <mxGeometry y="282" width="420" height="26" as="geometry" />
        </mxCell>
        <mxCell id="HQzzS1IwcTX02C_Df-WI-42" value="+ getPerimeter(): double" style="text;html=1;strokeColor=none;fillColor=none;align=left;verticalAlign=top;spacingLeft=4;spacingRight=4;whiteSpace=wrap;overflow=hidden;rotatable=0;points=[[0,0.5],[1,0.5]];portConstraint=eastwest;" vertex="1" parent="HQzzS1IwcTX02C_Df-WI-31">
          <mxGeometry y="308" width="420" height="26" as="geometry" />
        </mxCell>
        <mxCell id="HQzzS1IwcTX02C_Df-WI-43" value="+ equals(o: Object): boolean" style="text;html=1;strokeColor=none;fillColor=none;align=left;verticalAlign=top;spacingLeft=4;spacingRight=4;whiteSpace=wrap;overflow=hidden;rotatable=0;points=[[0,0.5],[1,0.5]];portConstraint=eastwest;" vertex="1" parent="HQzzS1IwcTX02C_Df-WI-31">
          <mxGeometry y="334" width="420" height="26" as="geometry" />
        </mxCell>
        <mxCell id="HQzzS1IwcTX02C_Df-WI-44" value="+ compareTo(o: Rectangle): int" style="text;html=1;strokeColor=none;fillColor=none;align=left;verticalAlign=top;spacingLeft=4;spacingRight=4;whiteSpace=wrap;overflow=hidden;rotatable=0;points=[[0,0.5],[1,0.5]];portConstraint=eastwest;" vertex="1" parent="HQzzS1IwcTX02C_Df-WI-31">
          <mxGeometry y="360" width="420" height="26" as="geometry" />
        </mxCell>
        <mxCell id="HQzzS1IwcTX02C_Df-WI-84" style="edgeStyle=orthogonalEdgeStyle;rounded=0;orthogonalLoop=1;jettySize=auto;html=1;dashed=1;" edge="1" parent="1" source="HQzzS1IwcTX02C_Df-WI-51">
          <mxGeometry relative="1" as="geometry">
            <mxPoint x="410" y="1080" as="targetPoint" />
          </mxGeometry>
        </mxCell>
        <mxCell id="HQzzS1IwcTX02C_Df-WI-51" value="&lt;i&gt;&amp;lt;&amp;lt;interface&amp;gt;&amp;gt;&lt;br&gt;Comparable&lt;/i&gt;" style="swimlane;html=1;fontStyle=1;align=center;verticalAlign=top;childLayout=stackLayout;horizontal=1;startSize=50;horizontalStack=0;resizeParent=1;resizeLast=0;collapsible=1;marginBottom=0;swimlaneFillColor=#ffffff;rounded=0;shadow=0;comic=0;labelBackgroundColor=none;strokeWidth=1;fillColor=none;fontFamily=Verdana;fontSize=12" vertex="1" parent="1">
          <mxGeometry x="320" y="1190" width="170" height="90" as="geometry" />
        </mxCell>
        <mxCell id="HQzzS1IwcTX02C_Df-WI-52" value="&lt;i&gt;+ compareTo(o: Object): int&lt;/i&gt;" style="text;html=1;strokeColor=none;fillColor=none;align=left;verticalAlign=top;spacingLeft=4;spacingRight=4;whiteSpace=wrap;overflow=hidden;rotatable=0;points=[[0,0.5],[1,0.5]];portConstraint=eastwest;" vertex="1" parent="HQzzS1IwcTX02C_Df-WI-51">
          <mxGeometry y="50" width="170" height="26" as="geometry" />
        </mxCell>
        <mxCell id="HQzzS1IwcTX02C_Df-WI-81" style="edgeStyle=orthogonalEdgeStyle;rounded=0;orthogonalLoop=1;jettySize=auto;html=1;entryX=1;entryY=0.5;entryDx=0;entryDy=0;" edge="1" parent="1" source="HQzzS1IwcTX02C_Df-WI-58" target="78961159f06e98e8-21">
          <mxGeometry relative="1" as="geometry" />
        </mxCell>
        <mxCell id="HQzzS1IwcTX02C_Df-WI-58" value="Square" style="swimlane;html=1;fontStyle=1;align=center;verticalAlign=top;childLayout=stackLayout;horizontal=1;startSize=26;horizontalStack=0;resizeParent=1;resizeLast=0;collapsible=1;marginBottom=0;swimlaneFillColor=#ffffff;rounded=0;shadow=0;comic=0;labelBackgroundColor=none;strokeWidth=1;fillColor=none;fontFamily=Verdana;fontSize=12" vertex="1" parent="1">
          <mxGeometry x="1240" y="680" width="160" height="90" as="geometry" />
        </mxCell>
        <mxCell id="HQzzS1IwcTX02C_Df-WI-63" value="" style="line;html=1;strokeWidth=1;fillColor=none;align=left;verticalAlign=middle;spacingTop=-1;spacingLeft=3;spacingRight=3;rotatable=0;labelPosition=right;points=[];portConstraint=eastwest;" vertex="1" parent="HQzzS1IwcTX02C_Df-WI-58">
          <mxGeometry y="26" width="160" height="8" as="geometry" />
        </mxCell>
        <mxCell id="HQzzS1IwcTX02C_Df-WI-64" value="+ Square()" style="text;html=1;strokeColor=none;fillColor=none;align=left;verticalAlign=top;spacingLeft=4;spacingRight=4;whiteSpace=wrap;overflow=hidden;rotatable=0;points=[[0,0.5],[1,0.5]];portConstraint=eastwest;" vertex="1" parent="HQzzS1IwcTX02C_Df-WI-58">
          <mxGeometry y="34" width="160" height="26" as="geometry" />
        </mxCell>
        <mxCell id="HQzzS1IwcTX02C_Df-WI-82" style="edgeStyle=orthogonalEdgeStyle;rounded=0;orthogonalLoop=1;jettySize=auto;html=1;entryX=0.5;entryY=1;entryDx=0;entryDy=0;dashed=1;" edge="1" parent="1" source="HQzzS1IwcTX02C_Df-WI-72" target="HQzzS1IwcTX02C_Df-WI-58">
          <mxGeometry relative="1" as="geometry" />
        </mxCell>
        <mxCell id="HQzzS1IwcTX02C_Df-WI-83" style="edgeStyle=orthogonalEdgeStyle;rounded=0;orthogonalLoop=1;jettySize=auto;html=1;exitX=0;exitY=0.5;exitDx=0;exitDy=0;entryX=1.003;entryY=0.104;entryDx=0;entryDy=0;entryPerimeter=0;dashed=1;" edge="1" parent="1" source="HQzzS1IwcTX02C_Df-WI-72" target="HQzzS1IwcTX02C_Df-WI-27">
          <mxGeometry relative="1" as="geometry" />
        </mxCell>
        <mxCell id="HQzzS1IwcTX02C_Df-WI-72" value="&lt;i&gt;&amp;lt;&amp;lt;interface&amp;gt;&amp;gt;&lt;br&gt;Colorable&lt;/i&gt;" style="swimlane;html=1;fontStyle=1;align=center;verticalAlign=top;childLayout=stackLayout;horizontal=1;startSize=50;horizontalStack=0;resizeParent=1;resizeLast=0;collapsible=1;marginBottom=0;swimlaneFillColor=#ffffff;rounded=0;shadow=0;comic=0;labelBackgroundColor=none;strokeWidth=1;fillColor=none;fontFamily=Verdana;fontSize=12" vertex="1" parent="1">
          <mxGeometry x="1250" y="878" width="170" height="90" as="geometry" />
        </mxCell>
        <mxCell id="HQzzS1IwcTX02C_Df-WI-73" value="&lt;i&gt;+ howToColor()&lt;/i&gt;" style="text;html=1;strokeColor=none;fillColor=none;align=left;verticalAlign=top;spacingLeft=4;spacingRight=4;whiteSpace=wrap;overflow=hidden;rotatable=0;points=[[0,0.5],[1,0.5]];portConstraint=eastwest;" vertex="1" parent="HQzzS1IwcTX02C_Df-WI-72">
          <mxGeometry y="50" width="170" height="26" as="geometry" />
        </mxCell>
      </root>
    </mxGraphModel>
  </diagram>
</mxfile>
